Patient4_TMGait_0pt8_01_left_17_EMG.mot
version=1
nRows=13
nColumns=33
inDegrees=no
endheader
time	1LAddLong	2LGlutMax	3LGlutMed	4LIliopsoas	5LSemiMemb	6LBicFemLong	7LRecFem	8LVastMed	9LVastLat	10LGasMed	11LTibAnt	12lTibPost	13LPeroneusLong	14LSol	15LExtDigLong	16LFlexDigLong	17RAddLong	18RGlutMax	19RGlutMed	20RIliopsoas	21RSemiMemb	22RBicFemLong	23RRecFem	24RVastMed	25RVastLat	26RGasMed	27RTibAnt	28RTibPost	29RPeroneusLong	30RSol	31RExtDigLong	32RFlexDigLong
18.25	-0.012512	-0.70511	-0.057526	0.027924	-0.019989	0.03479	0.009918	0.006561	-0.20462	-0.019531	-0.12589	0.020294	0.098419	-0.070648	1.0916	0.024719	0.014801	-0.36392	0.3157	-0.006866	-0.002289	0.073242	-0.087128	-0.25909	-0.14267	-0.023041	-0.54123	-0.00351	1.1855	0.18112	0.007477	-0.007324
18.251	-0.007782	-0.78903	-0.056305	0.062561	-0.023499	0.033417	0.075989	-0.00412	-0.20294	0.006104	-0.15076	0.014648	0.094757	-0.03067	0.3067	0.022125	0.006409	-0.36011	0.12039	-0.03952	0.024414	-0.078125	0.02594	-0.13473	0.30563	-0.013885	-1.0892	0.002899	0.78079	-0.004578	0.003662	0.002136
18.252	0.000305	-0.85113	-0.041962	0.059052	-0.016937	0.027618	0.10712	0.005035	-0.20584	0.011292	-0.050964	0.011139	0.014496	0.051727	-0.24353	0.021362	-0.019684	-0.39185	0.1239	-0.043793	0.04425	-0.11322	0.10239	0.047607	0.4805	-0.021667	-0.96847	-0.062408	1.1392	-0.030975	0.007935	-0.002899
18.253	-0.001984	-0.94193	-0.043182	0.036011	-0.015564	-0.007324	0.10101	0.005188	-0.22049	0.041046	0.14465	0.010376	-0.044403	0.10178	-0.50934	0.015869	-0.030212	-0.43472	0.21683	-0.045624	0.075073	-0.10269	0.070953	-0.22079	0.3743	-0.011597	-0.40634	0.002289	-0.51971	0.030518	0.001526	0.005341
18.254	-0.005188	-0.97733	-0.053711	-0.002136	-0.00885	-0.009308	0.11444	-0.001068	-0.2121	0.040131	0.20081	0.009308	0.004425	0.099487	-0.41199	0.026093	-0.019226	-0.41321	0.45456	-0.053558	0.086517	-0.29129	-0.17792	-0.37735	0.37827	-0.00946	-0.11856	-0.00061	-1.066	-0.11505	0.003357	-0.002136
18.255	0.001831	-0.98572	-0.035248	-0.029144	-0.010071	-0.02121	0.1149	0.002136	-0.21271	0.037689	0.030823	0.017395	0.02594	0.072327	-0.31754	0.025177	-0.018463	-0.45059	0.31662	-0.063477	0.015106	-0.33264	-0.42664	-0.33096	0.55786	-0.003815	-0.25543	-0.001373	-1.6678	-0.24536	0.014038	-0.00885
18.256	0.008698	-1.0143	-0.035248	-0.012207	-0.006561	-0.018158	0.11002	0.010986	-0.20706	0.033569	0.005951	0.007477	0.03952	0.059052	-0.42129	0.003052	-0.028534	-0.55847	0.14557	-0.054321	-0.026093	-0.22964	-0.28961	-0.018463	0.3569	-0.016327	0.22064	-0.002441	-1.2769	-0.22003	0.005951	-0.001373
18.257	0.082397	-1.0181	-0.038757	-0.002747	-0.003662	-0.043488	0.11856	0.00473	-0.20721	0.024567	-0.063019	0.018768	0.006104	-0.10346	-0.31967	-0.003052	-0.030212	-0.64545	0.014343	-0.029755	-0.023499	-0.16495	-0.15778	0.007629	-0.17334	-0.015717	0.46432	-0.008392	-0.19318	-0.045471	0.003357	-0.003815
18.258	0.066223	-1.0307	-0.032043	0.019836	-0.003662	-0.027924	0.11276	0.011292	-0.21881	0.009613	0.03952	0.01236	-0.054626	-0.18249	0.009308	0.011292	0.004883	-0.6723	-0.00885	-0.009613	-0.023346	-0.16953	-0.17227	0.017395	-0.58579	-0.013885	0.1973	-0.006561	0.8168	-0.020752	0.003815	-0.00351
18.259	0.032196	-0.99426	-0.039063	0.028992	-0.006561	-0.005188	0.10803	0.017242	-0.24109	-0.074768	0.20599	0.004578	-0.042267	-0.10605	0.53909	-0.001678	-0.001831	-0.71793	-0.023041	-0.020599	-0.018311	-0.060577	-0.17853	0.38208	-0.30167	-0.010681	-0.58136	-0.004425	0.29724	0.14465	0.001831	0.002747
18.26	-0.016174	-1.0295	-0.03891	0.024719	-0.008545	0.003357	0.11307	0.00473	-0.23834	-0.098724	0.024719	0.010529	0.002747	-0.081024	0.11398	0.004425	-0.003815	-0.68466	-0.16419	-0.052948	-0.021057	0.004578	0.019073	0.39017	-0.33386	-0.005341	-0.70221	-0.001068	-0.51056	0.1445	0.004883	-0.000458
18.261	0.004883	-0.99533	-0.054779	0.022583	-0.005341	0.035553	0.12466	0.006866	-0.24307	-0.059509	-0.16037	0.007019	0.053711	-0.007935	-0.24323	0.008087	0.016327	-0.63217	0.005646	-0.10117	-0.023193	0.036621	-0.092621	0.13947	-0.31998	-0.00824	-0.058136	0.007019	-0.36331	0.08667	0.000916	-0.001373
18.262	0.009613	-0.99472	-0.038147	0.005341	-0.010223	0.042419	0.086517	0.018921	-0.23834	0.06012	-0.12222	0.008698	0.085297	-0.094604	-0.49774	0.002899	0.015564	-0.53802	0.28076	-0.088348	-0.02533	0.046082	-0.26245	-0.27145	-0.22079	-0.007935	0.056458	0.000305	0.55084	-0.002899	0.003357	0.003052
